<svg width="540" height="350" viewBox="0 0 540 350" fill="none" xmlns="http://www.w3.org/2000/svg">
<mask id="mask0_30_1186" style="mask-type:alpha" maskUnits="userSpaceOnUse" x="0" y="0" width="540" height="350">
<rect width="540" height="350" fill="white"/>
</mask>
<g mask="url(#mask0_30_1186)">
<rect opacity="0.02" width="540" height="350" fill="#3C64B1"/>
<g opacity="0.06">
<path d="M0 0L540 350" stroke="#3C64B1"/>
<path d="M21.0938 -13.6719L561.094 336.328" stroke="#3C64B1"/>
<path d="M42.1875 -27.3438L582.188 322.656" stroke="#3C64B1"/>
<path d="M63.2812 -41.0156L603.281 308.984" stroke="#3C64B1"/>
<path d="M84.375 -54.6875L624.375 295.312" stroke="#3C64B1"/>
<path d="M105.469 -68.3594L645.469 281.641" stroke="#3C64B1"/>
<path d="M126.562 -82.0312L666.562 267.969" stroke="#3C64B1"/>
<path d="M147.656 -95.7031L687.656 254.297" stroke="#3C64B1"/>
<path d="M168.75 -109.375L708.75 240.625" stroke="#3C64B1"/>
<path d="M189.844 -123.047L729.844 226.953" stroke="#3C64B1"/>
<path d="M210.938 -136.719L750.938 213.281" stroke="#3C64B1"/>
<path d="M232.031 -150.391L772.031 199.609" stroke="#3C64B1"/>
<path d="M253.125 -164.062L793.125 185.938" stroke="#3C64B1"/>
<path d="M-21.0938 13.6719L518.906 363.672" stroke="#3C64B1"/>
<path d="M-42.1875 27.3438L497.812 377.344" stroke="#3C64B1"/>
<path d="M-63.2812 41.0156L476.719 391.016" stroke="#3C64B1"/>
<path d="M-84.375 54.6875L455.625 404.688" stroke="#3C64B1"/>
<path d="M-105.469 68.3594L434.531 418.359" stroke="#3C64B1"/>
<path d="M-126.562 82.0312L413.438 432.031" stroke="#3C64B1"/>
<path d="M-147.656 95.7031L392.344 445.703" stroke="#3C64B1"/>
<path d="M-168.75 109.375L371.25 459.375" stroke="#3C64B1"/>
<path d="M-189.844 123.047L350.156 473.047" stroke="#3C64B1"/>
<path d="M-210.938 136.719L329.062 486.719" stroke="#3C64B1"/>
<path d="M-232.031 150.391L307.969 500.391" stroke="#3C64B1"/>
<path d="M-253.125 164.062L286.875 514.062" stroke="#3C64B1"/>
<path d="M-274.219 177.734L265.781 527.734" stroke="#3C64B1"/>
</g>
<g opacity="0.06">
<path d="M10.5469 -6.83594L550.547 343.164" stroke="#3C64B1"/>
<path d="M31.6406 -20.5078L571.641 329.492" stroke="#3C64B1"/>
<path d="M52.7344 -34.1797L592.734 315.82" stroke="#3C64B1"/>
<path d="M73.8281 -47.8516L613.828 302.148" stroke="#3C64B1"/>
<path d="M94.9219 -61.5234L634.922 288.477" stroke="#3C64B1"/>
<path d="M116.016 -75.1953L656.016 274.805" stroke="#3C64B1"/>
<path d="M137.109 -88.8672L677.109 261.133" stroke="#3C64B1"/>
<path d="M158.203 -102.539L698.203 247.461" stroke="#3C64B1"/>
<path d="M179.297 -116.211L719.297 233.789" stroke="#3C64B1"/>
<path d="M200.391 -129.883L740.391 220.117" stroke="#3C64B1"/>
<path d="M221.484 -143.555L761.484 206.445" stroke="#3C64B1"/>
<path d="M242.578 -157.227L782.578 192.773" stroke="#3C64B1"/>
<path d="M263.672 -170.898L803.672 179.102" stroke="#3C64B1"/>
<path d="M-10.5469 6.83594L529.453 356.836" stroke="#3C64B1"/>
<path d="M-31.6406 20.5078L508.359 370.508" stroke="#3C64B1"/>
<path d="M-52.7344 34.1797L487.266 384.18" stroke="#3C64B1"/>
<path d="M-73.8281 47.8516L466.172 397.852" stroke="#3C64B1"/>
<path d="M-94.9219 61.5234L445.078 411.523" stroke="#3C64B1"/>
<path d="M-116.016 75.1953L423.984 425.195" stroke="#3C64B1"/>
<path d="M-137.109 88.8672L402.891 438.867" stroke="#3C64B1"/>
<path d="M-158.203 102.539L381.797 452.539" stroke="#3C64B1"/>
<path d="M-179.297 116.211L360.703 466.211" stroke="#3C64B1"/>
<path d="M-200.391 129.883L339.609 479.883" stroke="#3C64B1"/>
<path d="M-221.484 143.555L318.516 493.555" stroke="#3C64B1"/>
<path d="M-242.578 157.227L297.422 507.227" stroke="#3C64B1"/>
<path d="M-263.672 170.898L276.328 520.898" stroke="#3C64B1"/>
</g>
</g>
<g opacity="0.5">
<path d="M281.667 160H258.333C256.492 160 255 161.492 255 163.333V186.667C255 188.508 256.492 190 258.333 190H281.667C283.508 190 285 188.508 285 186.667V163.333C285 161.492 283.508 160 281.667 160Z" stroke="#3C64B1" stroke-width="1.5" stroke-linecap="round" stroke-linejoin="round"/>
<path d="M264.167 171.667C265.547 171.667 266.667 170.547 266.667 169.167C266.667 167.786 265.547 166.667 264.167 166.667C262.786 166.667 261.667 167.786 261.667 169.167C261.667 170.547 262.786 171.667 264.167 171.667Z" stroke="#3C64B1" stroke-width="1.5" stroke-linecap="round" stroke-linejoin="round"/>
<path d="M285 180L276.667 171.667L258.333 190" stroke="#3C64B1" stroke-width="1.5" stroke-linecap="round" stroke-linejoin="round"/>
</g>
</svg>
