<svg width="45" height="49" viewBox="0 0 45 49" fill="none" xmlns="http://www.w3.org/2000/svg">
<g filter="url(#filter0_d_92_141)">
<path d="M16.875 11.25C16.875 11.9887 17.0205 12.7201 17.3032 13.4026C17.5859 14.0851 18.0002 14.7051 18.5225 15.2275C19.0449 15.7498 19.6649 16.1641 20.3474 16.4468C21.0299 16.7295 21.7613 16.875 22.5 16.875C23.2387 16.875 23.9701 16.7295 24.6526 16.4468C25.3351 16.1641 25.9551 15.7498 26.4775 15.2275C26.9998 14.7051 27.4141 14.085 27.6968 13.4026C27.9795 12.7201 28.125 11.9887 28.125 11.25C28.125 10.5113 27.9795 9.77986 27.6968 9.0974C27.4141 8.41495 26.9998 7.79485 26.4775 7.27252C25.9551 6.75019 25.335 6.33586 24.6526 6.05318C23.9701 5.77049 23.2387 5.625 22.5 5.625C21.7613 5.625 21.0299 5.7705 20.3474 6.05318C19.6649 6.33586 19.0449 6.7502 18.5225 7.27253C18.0002 7.79486 17.5859 8.41495 17.3032 9.09741C17.0205 9.77987 16.875 10.5113 16.875 11.25L16.875 11.25Z" stroke="#569EB8" stroke-width="2"/>
<path d="M8.32087 26.0653C7.68115 26.4347 7.12044 26.9264 6.67076 27.5124C6.22107 28.0985 5.89122 28.7673 5.70004 29.4809C5.50885 30.1944 5.46007 30.9386 5.55649 31.6709C5.65291 32.4033 5.89263 33.1095 6.26198 33.7492C6.63132 34.3889 7.12305 34.9496 7.70909 35.3993C8.29512 35.849 8.964 36.1789 9.67751 36.37C10.391 36.5612 11.1352 36.61 11.8676 36.5136C12.5999 36.4172 13.3061 36.1774 13.9459 35.8081C14.5856 35.4388 15.1463 34.947 15.596 34.361C16.0457 33.775 16.3755 33.1061 16.5667 32.3926C16.7579 31.6791 16.8067 30.9349 16.7102 30.2025C16.6138 29.4701 16.3741 28.7639 16.0048 28.1242C15.6354 27.4845 15.1437 26.9238 14.5576 26.4741C13.9716 26.0244 13.3027 25.6946 12.5892 25.5034C11.8757 25.3122 11.1315 25.2634 10.3992 25.3598C9.66679 25.4563 8.96059 25.696 8.32087 26.0653L8.32087 26.0653Z" stroke="#569EB8" stroke-width="2"/>
<path d="M36.6791 26.0653C37.3189 26.4347 37.8796 26.9264 38.3292 27.5124C38.7789 28.0985 39.1088 28.7673 39.3 29.4809C39.4912 30.1944 39.5399 30.9386 39.4435 31.6709C39.3471 32.4033 39.1074 33.1095 38.738 33.7492C38.3687 34.3889 37.877 34.9496 37.2909 35.3993C36.7049 35.849 36.036 36.1789 35.3225 36.37C34.609 36.5612 33.8648 36.61 33.1324 36.5136C32.4001 36.4172 31.6939 36.1774 31.0541 35.8081C30.4144 35.4388 29.8537 34.947 29.404 34.361C28.9543 33.775 28.6245 33.1061 28.4333 32.3926C28.2421 31.6791 28.1933 30.9349 28.2898 30.2025C28.3862 29.4701 28.6259 28.7639 28.9952 28.1242C29.3646 27.4845 29.8563 26.9238 30.4424 26.4741C31.0284 26.0244 31.6973 25.6946 32.4108 25.5034C33.1243 25.3122 33.8685 25.2634 34.6008 25.3598C35.3332 25.4563 36.0394 25.696 36.6791 26.0653L36.6791 26.0653Z" stroke="#569EB8" stroke-width="2"/>
<path fill-rule="evenodd" clip-rule="evenodd" d="M16.8829 11.5518C16.8776 11.4516 16.8749 11.3512 16.8749 11.2506C16.8749 10.5722 16.9976 9.89992 17.2366 9.26609C16.9473 9.36685 16.6607 9.47601 16.3771 9.5935C14.4358 10.3976 12.672 11.5761 11.1863 13.0619C9.70055 14.5476 8.522 16.3114 7.71792 18.2526C6.91385 20.1939 6.5 22.2744 6.5 24.3756C6.5 25.3833 6.59519 26.3863 6.78297 27.3714C7.2124 26.8475 7.73327 26.4051 8.32077 26.0659C8.40788 26.0156 8.49622 25.9677 8.5857 25.9223C8.52872 25.4097 8.5 24.8933 8.5 24.3756C8.5 22.5371 8.86212 20.7166 9.56568 19.018C10.2692 17.3194 11.3005 15.7761 12.6005 14.4761C13.834 13.2426 15.2866 12.2511 16.8829 11.5518ZM28.1168 11.5517C29.7133 12.2509 31.1659 13.2425 32.3995 14.4761C33.6995 15.7761 34.7307 17.3194 35.4343 19.018C36.1379 20.7166 36.5 22.5371 36.5 24.3756C36.5 24.8934 36.4713 25.4097 36.4143 25.9224C36.5037 25.9678 36.5919 26.0156 36.679 26.0659C37.2666 26.4051 37.7875 26.8476 38.217 27.3717C38.4048 26.3864 38.5 25.3834 38.5 24.3756C38.5 22.2744 38.0861 20.1938 37.2821 18.2526C36.478 16.3114 35.2994 14.5476 33.8137 13.0619C32.328 11.5761 30.5641 10.3976 28.6229 9.59349C28.3392 9.47596 28.0525 9.36677 27.7631 9.26599C28.0022 9.89985 28.1249 10.5722 28.1249 11.2506C28.1249 11.3511 28.1222 11.4515 28.1168 11.5517ZM32.9543 36.4878C32.2856 36.3779 31.6417 36.148 31.054 35.8087C30.9671 35.7585 30.8817 35.7061 30.7978 35.6515C29.8903 36.3193 28.9033 36.8767 27.8576 37.3099C26.159 38.0134 24.3385 38.3756 22.5 38.3756C20.6615 38.3756 18.841 38.0134 17.1424 37.3099C16.0966 36.8767 15.1097 36.3193 14.2021 35.6514C14.1182 35.706 14.0327 35.7585 13.9458 35.8087C13.3581 36.148 12.7143 36.3779 12.0456 36.4878C13.3359 37.6014 14.7978 38.5035 16.3771 39.1576C18.3183 39.9617 20.3989 40.3756 22.5 40.3756C24.6012 40.3756 26.6817 39.9617 28.6229 39.1576C30.2022 38.5035 31.6641 37.6015 32.9543 36.4878Z" fill="#569EB8"/>
</g>
<defs>
<filter id="filter0_d_92_141" x="-4" y="0" width="53" height="53" filterUnits="userSpaceOnUse" color-interpolation-filters="sRGB">
<feFlood flood-opacity="0" result="BackgroundImageFix"/>
<feColorMatrix in="SourceAlpha" type="matrix" values="0 0 0 0 0 0 0 0 0 0 0 0 0 0 0 0 0 0 127 0" result="hardAlpha"/>
<feOffset dy="4"/>
<feGaussianBlur stdDeviation="2"/>
<feComposite in2="hardAlpha" operator="out"/>
<feColorMatrix type="matrix" values="0 0 0 0 0 0 0 0 0 0 0 0 0 0 0 0 0 0 0.25 0"/>
<feBlend mode="normal" in2="BackgroundImageFix" result="effect1_dropShadow_92_141"/>
<feBlend mode="normal" in="SourceGraphic" in2="effect1_dropShadow_92_141" result="shape"/>
</filter>
</defs>
</svg>
