<svg width="54" height="39" viewBox="0 0 54 39" fill="none" xmlns="http://www.w3.org/2000/svg">
<path d="M25.2768 1.26786L4.48623 9.2376C2.82563 9.87416 2.75958 12.1991 4.38136 12.9289L25.1745 22.2858C25.685 22.5156 26.2685 22.5208 26.7831 22.3003L48.6135 12.9444C50.2784 12.2309 50.213 9.84857 48.5115 9.22739L26.6786 1.25664C26.2253 1.09115 25.7274 1.09514 25.2768 1.26786Z" stroke="#569EB8" stroke-width="2"/>
<path d="M10.3901 15.7195V29.9103C10.3901 30.7482 10.9125 31.4973 11.6987 31.787L26.1499 37.1111C26.5962 37.2755 27.0865 37.2755 27.5328 37.1111L41.984 31.787C42.7702 31.4973 43.2926 30.7482 43.2926 29.9103V15.7195" stroke="#569EB8" stroke-width="2"/>
<path d="M49 13V25" stroke="#569EB8" stroke-width="2" stroke-linecap="round"/>
</svg>
